<?xml version="1.0" encoding="utf-8" standalone="no"?><!DOCTYPE svg PUBLIC "-//W3C//DTD SVG 20010904//EN" "http://www.w3.org/TR/2001/REC-SVG-20010904/DTD/svg10.dtd"><svg xmlns="http://www.w3.org/2000/svg" width="655" height="450" xmlns:xlink="http://www.w3.org/1999/xlink"><source><![CDATA[participant Polls
participant Calendar
participant Dashboard


Dashboard ->Recruitment: Main navbar
Recruitment -> Dashboard: Home Button

Dashboard -> Polls: Main navbar
Polls -> Dashboard: Home Button

Dashboard ->Tournament: Dashboard navbar
Tournament -> Dashboard: Home Button


Dashboard -> Calendar: Main navbar
Calendar -> Dashboard: Home Button]]></source><desc></desc><defs><marker viewBox="0 0 5 5" markerWidth="5" markerHeight="5" orient="auto" refX="5" refY="2.5" id="markerArrowBlock"><path d="M 0 0 L 5 2.5 L 0 5 z"></path></marker><marker viewBox="0 0 9.6 16" markerWidth="4" markerHeight="16" orient="auto" refX="9.6" refY="8" id="markerArrowOpen"><path d="M 9.6,8 1.92,16 0,13.7 5.76,8 0,2.286 1.92,0 9.6,8 z"></path></marker></defs><g class="title"></g><g class="actor"><rect x="10" y="20" width="70" height="39" style="stroke-width: 2px;" stroke="#000000" fill="#ffffff"></rect><text x="20" y="45" style="font-size: 16px; font-family: Andale Mono, monospace;"><tspan x="20">Polls</tspan></text></g><g class="actor"><rect x="10" y="391" width="70" height="39" style="stroke-width: 2px;" stroke="#000000" fill="#ffffff"></rect><text x="20" y="416" style="font-size: 16px; font-family: Andale Mono, monospace;"><tspan x="20">Polls</tspan></text></g><line x1="45" x2="45" y1="59" y2="391" style="stroke-width: 2px;" stroke="#000000" fill="none"></line><g class="actor"><rect x="100" y="20" width="100" height="39" style="stroke-width: 2px;" stroke="#000000" fill="#ffffff"></rect><text x="110" y="45" style="font-size: 16px; font-family: Andale Mono, monospace;"><tspan x="110">Calendar</tspan></text></g><g class="actor"><rect x="100" y="391" width="100" height="39" style="stroke-width: 2px;" stroke="#000000" fill="#ffffff"></rect><text x="110" y="416" style="font-size: 16px; font-family: Andale Mono, monospace;"><tspan x="110">Calendar</tspan></text></g><line x1="150" x2="150" y1="59" y2="391" style="stroke-width: 2px;" stroke="#000000" fill="none"></line><g class="actor"><rect x="225" y="20" width="110" height="39" style="stroke-width: 2px;" stroke="#000000" fill="#ffffff"></rect><text x="235" y="45" style="font-size: 16px; font-family: Andale Mono, monospace;"><tspan x="235">Dashboard</tspan></text></g><g class="actor"><rect x="225" y="391" width="110" height="39" style="stroke-width: 2px;" stroke="#000000" fill="#ffffff"></rect><text x="235" y="416" style="font-size: 16px; font-family: Andale Mono, monospace;"><tspan x="235">Dashboard</tspan></text></g><line x1="280" x2="280" y1="59" y2="391" style="stroke-width: 2px;" stroke="#000000" fill="none"></line><g class="actor"><rect x="355" y="20" width="130" height="39" style="stroke-width: 2px;" stroke="#000000" fill="#ffffff"></rect><text x="365" y="45" style="font-size: 16px; font-family: Andale Mono, monospace;"><tspan x="365">Recruitment</tspan></text></g><g class="actor"><rect x="355" y="391" width="130" height="39" style="stroke-width: 2px;" stroke="#000000" fill="#ffffff"></rect><text x="365" y="416" style="font-size: 16px; font-family: Andale Mono, monospace;"><tspan x="365">Recruitment</tspan></text></g><line x1="420" x2="420" y1="59" y2="391" style="stroke-width: 2px;" stroke="#000000" fill="none"></line><g class="actor"><rect x="505" y="20" width="120" height="39" style="stroke-width: 2px;" stroke="#000000" fill="#ffffff"></rect><text x="515" y="45" style="font-size: 16px; font-family: Andale Mono, monospace;"><tspan x="515">Tournament</tspan></text></g><g class="actor"><rect x="505" y="391" width="120" height="39" style="stroke-width: 2px;" stroke="#000000" fill="#ffffff"></rect><text x="515" y="416" style="font-size: 16px; font-family: Andale Mono, monospace;"><tspan x="515">Tournament</tspan></text></g><line x1="565" x2="565" y1="59" y2="391" style="stroke-width: 2px;" stroke="#000000" fill="none"></line><g class="signal"><text x="295" y="89.5" style="font-size: 16px; font-family: Andale Mono, monospace;"><tspan x="295">Main navbar</tspan></text><line x1="280" x2="420" y1="98" y2="98" style="stroke-width: 2px; marker-end: url(&quot;#markerArrowBlock&quot;);" stroke="#000000" fill="none"></line></g><g class="signal"><text x="295" y="128.5" style="font-size: 16px; font-family: Andale Mono, monospace;"><tspan x="295">Home Button</tspan></text><line x1="420" x2="280" y1="137" y2="137" style="stroke-width: 2px; marker-end: url(&quot;#markerArrowBlock&quot;);" stroke="#000000" fill="none"></line></g><g class="signal"><text x="107.5" y="167.5" style="font-size: 16px; font-family: Andale Mono, monospace;"><tspan x="107.5">Main navbar</tspan></text><line x1="280" x2="45" y1="176" y2="176" style="stroke-width: 2px; marker-end: url(&quot;#markerArrowBlock&quot;);" stroke="#000000" fill="none"></line></g><g class="signal"><text x="107.5" y="206.5" style="font-size: 16px; font-family: Andale Mono, monospace;"><tspan x="107.5">Home Button</tspan></text><line x1="45" x2="280" y1="215" y2="215" style="stroke-width: 2px; marker-end: url(&quot;#markerArrowBlock&quot;);" stroke="#000000" fill="none"></line></g><g class="signal"><text x="342.5" y="245.5" style="font-size: 16px; font-family: Andale Mono, monospace;"><tspan x="342.5">Dashboard navbar</tspan></text><line x1="280" x2="565" y1="254" y2="254" style="stroke-width: 2px; marker-end: url(&quot;#markerArrowBlock&quot;);" stroke="#000000" fill="none"></line></g><g class="signal"><text x="367.5" y="284.5" style="font-size: 16px; font-family: Andale Mono, monospace;"><tspan x="367.5">Home Button</tspan></text><line x1="565" x2="280" y1="293" y2="293" style="stroke-width: 2px; marker-end: url(&quot;#markerArrowBlock&quot;);" stroke="#000000" fill="none"></line></g><g class="signal"><text x="160" y="323.5" style="font-size: 16px; font-family: Andale Mono, monospace;"><tspan x="160">Main navbar</tspan></text><line x1="280" x2="150" y1="332" y2="332" style="stroke-width: 2px; marker-end: url(&quot;#markerArrowBlock&quot;);" stroke="#000000" fill="none"></line></g><g class="signal"><text x="160" y="362.5" style="font-size: 16px; font-family: Andale Mono, monospace;"><tspan x="160">Home Button</tspan></text><line x1="150" x2="280" y1="371" y2="371" style="stroke-width: 2px; marker-end: url(&quot;#markerArrowBlock&quot;);" stroke="#000000" fill="none"></line></g></svg>